<svg viewBox="0 0 20 20" fill="currentColor" xmlns="http://www.w3.org/2000/svg">
  <path d="M17.4585 6.97202V7.80823V9.90135V12.6407V15.4184V17.6256C17.4585 17.9688 17.4602 18.3128 17.4585 18.656V18.6713C17.4602 18.5368 17.4569 18.7735 17.4569 18.7156C17.4569 18.7709 17.4813 18.639 17.4585 18.6883C17.4504 18.7037 17.4463 18.7267 17.4439 18.7437C17.4358 18.7948 17.4845 18.6798 17.452 18.7181C17.4423 18.7309 17.4317 18.7505 17.426 18.765C17.4057 18.8118 17.4813 18.7139 17.4407 18.7437C17.4285 18.7539 17.4122 18.7692 17.4041 18.782C17.3838 18.8093 17.4756 18.7292 17.4025 18.782C17.3984 18.7837 17.3943 18.7863 17.3903 18.7888C17.3594 18.8059 17.3594 18.8059 17.3903 18.7905C17.3984 18.7863 17.4065 18.7837 17.4146 18.7803C17.4025 18.7846 17.3903 18.7888 17.3756 18.7931C17.2781 18.8186 17.4504 18.7973 17.3472 18.7999H17.3309H17.3106H17.0277H15.6361H13.4537H10.8322H8.1271H5.69269H3.87842C3.60206 18.7999 3.32732 18.8016 3.05094 18.7999H3.03468H3.00623C2.93145 18.7999 3.02656 18.7956 3.03225 18.8042C3.03062 18.7999 2.98754 18.7914 2.97941 18.7888C2.90219 18.7701 3.00542 18.7931 3.00217 18.799C3.00054 18.8007 2.96153 18.7752 2.95584 18.7718C2.88431 18.736 3.00217 18.8297 2.95584 18.7701C2.95746 18.7743 2.91926 18.7318 2.91926 18.7292C2.92901 18.7164 2.96397 18.8076 2.93552 18.7479C2.93714 18.7522 2.90951 18.7011 2.90951 18.6994C2.92414 18.6909 2.93389 18.7888 2.91926 18.7233C2.91926 18.7275 2.90463 18.6679 2.90463 18.6679C2.91682 18.6662 2.90869 18.7633 2.90869 18.6952V18.6653V18.6441V18.2949V16.5722V13.992V11.1478V8.67838V7.15581V6.94974C2.84204 7.07321 2.77457 7.19498 2.70711 7.31761C3.20132 6.93696 3.69471 6.55292 4.18892 6.17228C4.51649 5.92108 4.84081 5.66986 5.16839 5.41866C5.78451 4.9435 6.40228 4.46918 7.01759 3.99232C7.73452 3.4388 8.45469 2.88531 9.17171 2.33179C9.56837 2.02695 9.97886 1.73401 10.365 1.41211C10.3715 1.40785 10.3772 1.4036 10.3829 1.39934H9.97236C10.304 1.65481 10.6324 1.90856 10.964 2.16403C11.6696 2.70732 12.3743 3.24976 13.079 3.79475C13.7293 4.29716 14.3796 4.79788 15.0298 5.30027C15.2835 5.49613 15.5379 5.69199 15.7923 5.88784C16.3979 6.35618 17.0034 6.82454 17.6114 7.29289C17.6277 7.30566 17.6456 7.31843 17.6618 7.33376C17.8341 7.46575 18.1235 7.36953 18.2186 7.18048C18.3308 6.95909 18.2576 6.73939 18.0723 6.59717C17.5131 6.16713 16.9547 5.73541 16.3962 5.30282C16.1321 5.09845 15.8695 4.89578 15.6061 4.69395C14.9925 4.22134 14.3788 3.74702 13.7626 3.27358C13.0408 2.71836 12.3198 2.1623 11.5989 1.60456C11.2006 1.29801 10.8088 0.972716 10.4 0.680623C10.3935 0.676365 10.3878 0.672108 10.3821 0.66785C10.2764 0.586954 10.0773 0.586954 9.97162 0.66785C9.49041 1.03827 9.01084 1.40869 8.52882 1.77913C7.63469 2.46889 6.74056 3.15693 5.84803 3.84669C5.34407 4.23671 4.83848 4.62585 4.33453 5.01332C3.70459 5.49871 3.07625 5.98408 2.44874 6.46947C2.39834 6.50779 2.34876 6.54611 2.29837 6.58698C2.17237 6.68491 2.10166 6.79561 2.09516 6.96762C2.09353 7.01872 2.09516 7.06981 2.09516 7.1209V7.88729V10.7382V14.3079V17.3564C2.09516 17.7924 2.0854 18.2318 2.09516 18.6678C2.10735 19.2111 2.5162 19.6385 3.03398 19.6488H3.11527H3.64768H5.87317H9.07168H12.4839H15.4198H17.1447C17.382 19.6488 17.6096 19.647 17.8234 19.504C18.1079 19.3166 18.2704 18.9973 18.2721 18.6465V18.483V16.4095V13.0373V9.58858V7.28524V6.96164C18.2721 6.73855 18.0851 6.52565 17.8656 6.53588C17.6429 6.55716 17.4584 6.73343 17.4584 6.97187L17.4585 6.97202Z" />
  <path d="M17.6594 7.3406C18.0942 7.67697 18.5275 8.01161 18.9615 8.34713C19.0249 8.39567 19.0875 8.44506 19.1509 8.4936C19.3232 8.62559 19.6126 8.52936 19.7077 8.34032C19.8199 8.11892 19.7443 7.89923 19.5614 7.75701C19.1265 7.42064 18.6933 7.08599 18.2592 6.75048C18.1958 6.70194 18.1332 6.65255 18.0698 6.60401C17.8975 6.47202 17.6081 6.56824 17.513 6.75729C17.4017 6.98038 17.4773 7.20008 17.6594 7.3406V7.3406Z" />
  <path d="M1.1913 8.49454C1.84564 7.99042 2.49834 7.48545 3.15188 6.98304C3.34534 6.83402 3.54042 6.68499 3.73307 6.53342C3.90377 6.40143 4.00781 6.15873 3.87938 5.95011C3.76965 5.77299 3.50547 5.65631 3.32258 5.79683C2.63167 6.32905 1.93913 6.86296 1.2482 7.39518C1.09213 7.5161 0.935258 7.63532 0.780815 7.75709C0.610119 7.88908 0.506078 8.13179 0.634505 8.34041C0.744238 8.51838 1.00923 8.63505 1.1913 8.49454V8.49454Z" />
  <path d="M12.2036 11.4961V12.2642V14.1104V16.3431V18.2761C12.2036 18.5895 12.1914 18.9062 12.2036 19.2196V19.2349L12.6101 18.8092H10.9697H8.35492H7.75343L8.15984 19.2349V17.4339V13.9325V11.584V11.5116V11.5014V11.4716C8.15984 11.4035 8.1696 11.4988 8.15334 11.4988C8.15171 11.4988 8.17122 11.4222 8.17366 11.4179C8.19154 11.3345 8.13139 11.4903 8.17366 11.4179C8.17529 11.4137 8.21268 11.3481 8.2143 11.3481C8.22893 11.3583 8.15334 11.4162 8.19967 11.372C8.20373 11.3677 8.25494 11.3141 8.25657 11.3166C8.26632 11.3319 8.17366 11.3677 8.24844 11.3268C8.25494 11.3251 8.30534 11.2928 8.30534 11.2945C8.28908 11.3013 8.27283 11.3098 8.25657 11.3158C8.27283 11.3089 8.28908 11.303 8.30697 11.2987C8.31347 11.297 8.3598 11.286 8.3598 11.286C8.2964 11.2945 8.28665 11.2945 8.33379 11.2928H8.36224H8.43133H9.6327H11.2974H11.8461H11.9842H12.0046H12.0192C12.107 11.2945 12.007 11.297 12.007 11.2885C12.007 11.2868 12.0802 11.3072 12.0842 11.3098C12.1574 11.3285 12.0151 11.263 12.0842 11.3098C12.0883 11.3115 12.1509 11.3507 12.1509 11.3524C12.1468 11.3592 12.0761 11.2774 12.1281 11.337C12.1322 11.3413 12.1834 11.395 12.181 11.3967C12.1744 11.4009 12.1257 11.3047 12.1647 11.3754C12.1663 11.3796 12.2053 11.4452 12.2037 11.4477C12.1858 11.4546 12.1777 11.3583 12.1915 11.4222C12.1931 11.4265 12.2118 11.5031 12.2118 11.5031C12.2102 11.4844 12.2078 11.4648 12.2037 11.4452V11.4963C12.2078 11.7194 12.3866 11.9323 12.6101 11.9221C12.8255 11.9118 13.0231 11.7347 13.0165 11.4963C13.0043 10.9104 12.563 10.4446 12.0021 10.4336C11.9086 10.4319 11.8127 10.4336 11.7192 10.4336H10.1911H8.65888C8.5589 10.4336 8.45974 10.4319 8.35976 10.4336C7.81677 10.4438 7.38841 10.8747 7.34533 11.4384C7.3307 11.6274 7.34371 11.8216 7.34371 12.0106V13.3518V16.9368C7.34371 17.6904 7.33395 18.444 7.34371 19.195V19.229C7.34371 19.459 7.53066 19.6548 7.75012 19.6548H9.39043H12.0053H12.6068C12.8262 19.6548 13.0132 19.4589 13.0132 19.229V18.4609V16.6148V14.3821V12.4491C13.0132 12.1357 13.0213 11.8206 13.0132 11.5055V11.4902C13.0132 11.2671 12.8262 11.0542 12.6068 11.0644C12.3905 11.0806 12.2036 11.2577 12.2036 11.4962L12.2036 11.4961Z" />
</svg>
