<svg viewBox="0 0 20 20" fill="currentColor" xmlns="http://www.w3.org/2000/svg">
  <path d="M19.7358 15.9861L16.4504 12.7007C17.2639 11.7575 17.7579 10.5308 17.7579 9.19056C17.7579 6.22324 15.3436 3.80951 12.377 3.80951C9.41044 3.80951 6.99609 6.22392 6.99609 9.19056C6.99609 12.1572 9.41044 14.5716 12.377 14.5716C13.7172 14.5716 14.9438 14.0776 15.887 13.2641L19.1724 16.5495C19.2499 16.6271 19.3522 16.6665 19.4538 16.6665C19.5561 16.6665 19.6577 16.6271 19.7352 16.5495C19.8923 16.3945 19.8922 16.1419 19.7358 15.9861ZM12.3769 13.7748C9.84944 13.7748 7.79273 11.7186 7.79273 9.19056C7.79273 6.66303 9.84892 4.60627 12.3769 4.60627C14.9044 4.60627 16.9611 6.66252 16.9611 9.19056C16.9611 11.7181 14.9042 13.7748 12.3769 13.7748Z" />
  <rect y="4.7619" width="6.19048" height="0.95238" rx="0.47619" />
  <rect y="10" width="5.23809" height="0.952381" rx="0.476191" />
  <rect y="14.7619" width="8.57143" height="0.95238" rx="0.47619" />
</svg>
