<svg viewBox="0 0 12 12" fill="currentColor" xmlns="http://www.w3.org/2000/svg">
  <path d="M12 4.5L7.75116 0.470157C7.0985 -0.156719 4.89837 -0.156719 4.24557 0.470157L0 4.5V5.91438V10.8755C0 11.4961 0.523442 12 1.16959 12H3.75606C4.03278 12 4.25731 11.7841 4.25731 11.5181V7.98394C4.25731 7.71724 4.48184 7.50201 4.75856 7.50201H7.2381C7.51482 7.50201 7.73935 7.71724 7.73935 7.98394V11.5181C7.73935 11.7841 7.96388 12 8.2406 12H10.8304C11.4766 12 12 11.4961 12 10.8755V5.91759V4.5ZM10.9974 10.8755C10.9974 10.9175 10.9798 10.9589 10.9485 10.989C10.9172 11.0192 10.8747 11.0361 10.8304 11.0361H8.74181V7.98389C8.74181 7.18506 8.06826 6.53811 7.23805 6.53811H4.75852C3.92831 6.53811 3.25476 7.18506 3.25476 7.98389V11.0361H1.1662C1.07418 11.0361 0.999118 10.9639 0.999118 10.8755V4.95369L4.95434 1.1516C5.21867 0.908132 6.77793 0.908132 7.04226 1.1516L10.9975 4.95369L10.9974 10.8755Z" />
</svg>
